# xmcd CD database file
#
# Track frame offsets:
#	150
#	19620
#	38408
#	53705
#	73602
#	94486
#	114811
#	136144
#	156272
#	179403
#	197413
#	218917
#	238049
#	249141
#	269258
#
# Disc length: 3845 seconds
#
# Revision: 0
# Processed by: cddbd v1.5.2PL0 Copyright (c) Steve Scherf et al.
# Submitted via: CDex 1.51
#
DISCID=c20f030f
DTITLE=Fred Engler - Since Then 'till Now
DYEAR=2008
DGENRE=Smooth Jazz
TTITLE0=Compulsive Lover
TTITLE1=Smash, Grab and Run
TTITLE2=Good Morning To You
TTITLE3=Hanging On
TTITLE4=Master of His Song
TTITLE5=Sambuca Samba
TTITLE6=Andromeda Journey
TTITLE7=Why Aren't You Here
TTITLE8=Meet Me in Rio
TTITLE9=Weave Me A Dream
TTITLE10=Desert Serenade
TTITLE11=Stoking The Fire
TTITLE12=A Walk in Central Park
TTITLE13=Satisfaction
TTITLE14=Smash, Grab and Run, bonus track
EXTD=YEAR: 2008
EXTT0=
EXTT1=
EXTT2=
EXTT3=
EXTT4=
EXTT5=
EXTT6=
EXTT7=
EXTT8=
EXTT9=
EXTT10=
EXTT11=
EXTT12=
EXTT13=
EXTT14=
PLAYORDER=
